<svg width="45" height="46" viewBox="0 0 45 46" fill="none" xmlns="http://www.w3.org/2000/svg">
<path d="M22.5 17.7025C21.4404 17.7029 20.4047 18.0186 19.5239 18.6098C18.6431 19.2009 17.9567 20.0409 17.5515 21.0235C17.1462 22.0062 17.0404 23.0874 17.2474 24.1304C17.4543 25.1734 17.9648 26.1314 18.7142 26.8832C19.4636 27.6351 20.4182 28.147 21.4575 28.3544C22.4967 28.5617 23.5739 28.4551 24.5528 28.048C25.5317 27.6409 26.3684 26.9517 26.957 26.0674C27.5456 25.1831 27.8598 24.1435 27.8598 23.08C27.8588 21.6538 27.2937 20.2863 26.2887 19.278C25.2837 18.2697 23.921 17.7031 22.5 17.7025ZM35.0267 13.5691C34.7539 12.8753 34.342 12.2452 33.8166 11.7178C33.2911 11.1904 32.6633 10.777 31.9721 10.5033C29.8627 9.66751 24.8404 9.85503 22.5 9.85503C20.1596 9.85503 15.1423 9.66046 13.0269 10.5033C12.3357 10.777 11.7079 11.1904 11.1824 11.7178C10.657 12.2452 10.2451 12.8753 9.97232 13.5691C9.14062 15.6862 9.32645 20.732 9.32645 23.079C9.32645 25.426 9.14062 30.4658 9.97634 32.59C10.2491 33.2838 10.661 33.9139 11.1864 34.4413C11.7119 34.9686 12.3397 35.382 13.0309 35.6558C15.1403 36.4916 20.1626 36.304 22.504 36.304C24.8454 36.304 29.8607 36.4986 31.9761 35.6558C32.6673 35.382 33.2952 34.9686 33.8206 34.4413C34.3461 33.9139 34.7579 33.2838 35.0307 32.59C35.8694 30.4729 35.6766 25.427 35.6766 23.08C35.6766 20.733 35.8694 15.6943 35.0307 13.5701L35.0267 13.5691ZM22.5 31.3469C20.871 31.3469 19.2785 30.8621 17.924 29.9537C16.5695 29.0453 15.5138 27.7542 14.8904 26.2436C14.267 24.7331 14.1038 23.0709 14.4217 21.4672C14.7395 19.8636 15.5239 18.3906 16.6758 17.2345C17.8277 16.0783 19.2954 15.291 20.8931 14.972C22.4909 14.653 24.147 14.8167 25.652 15.4424C27.1571 16.0681 28.4434 17.1277 29.3485 18.4872C30.2535 19.8467 30.7366 21.445 30.7366 23.08C30.7379 24.166 30.5258 25.2416 30.1123 26.2452C29.6989 27.2488 29.0922 28.1607 28.3271 28.9286C27.562 29.6965 26.6535 30.3054 25.6536 30.7203C24.6537 31.1353 23.582 31.3483 22.5 31.3469ZM31.0761 16.396C30.6958 16.3962 30.324 16.2832 30.0077 16.0712C29.6914 15.8593 29.4449 15.558 29.2992 15.2055C29.1535 14.8529 29.1153 14.4649 29.1894 14.0905C29.2635 13.7161 29.4465 13.3722 29.7153 13.1023C29.9841 12.8323 30.3267 12.6484 30.6997 12.5739C31.0726 12.4993 31.4592 12.5375 31.8106 12.6835C32.162 12.8295 32.4623 13.0769 32.6736 13.3942C32.8849 13.7115 32.9977 14.0847 32.9977 14.4663C32.9987 14.7198 32.9499 14.971 32.854 15.2055C32.7581 15.44 32.6171 15.6531 32.4389 15.8328C32.2608 16.0124 32.049 16.155 31.8159 16.2524C31.5827 16.3497 31.3327 16.3999 31.0801 16.4L31.0761 16.396ZM40.1786 0.497314H4.82143C3.54271 0.497314 2.31636 1.00715 1.41216 1.91467C0.50797 2.82219 0 4.05305 0 5.33647L0 40.8236C0 42.107 0.50797 43.3379 1.41216 44.2454C2.31636 45.1529 3.54271 45.6628 4.82143 45.6628H40.1786C41.4573 45.6628 42.6836 45.1529 43.5878 44.2454C44.492 43.3379 45 42.107 45 40.8236V5.33647C45 4.05305 44.492 2.82219 43.5878 1.91467C42.6836 1.00715 41.4573 0.497314 40.1786 0.497314ZM38.4589 29.7339C38.3294 32.3178 37.7417 34.6073 35.8624 36.4885C33.983 38.3697 31.7039 38.9716 29.1325 39.0946C26.4797 39.2448 18.5263 39.2448 15.8735 39.0946C13.2991 38.9646 11.026 38.3738 9.14364 36.4885C7.26127 34.6033 6.66964 32.3127 6.5471 29.7339C6.39743 27.0703 6.39743 19.0867 6.5471 16.4262C6.67667 13.8423 7.25725 11.5528 9.14364 9.67155C11.03 7.79032 13.3092 7.19551 15.8735 7.07252C18.5263 6.9223 26.4797 6.9223 29.1325 7.07252C31.7069 7.20257 33.9871 7.79335 35.8624 9.6786C37.7377 11.5639 38.3364 13.8544 38.4589 16.4383C38.6086 19.0918 38.6086 27.0683 38.4589 29.7339Z" fill="white"/>
</svg>
