<svg width="45" height="46" viewBox="0 0 45 46" fill="none" xmlns="http://www.w3.org/2000/svg">
<path d="M40.1786 0.723145H4.82143C2.1596 0.723145 0 2.86902 0 5.51393V40.6463C0 43.2913 2.1596 45.4371 4.82143 45.4371H40.1786C42.8404 45.4371 45 43.2913 45 40.6463V5.51393C45 2.86902 42.8404 0.723145 40.1786 0.723145ZM35.2667 16.5727C35.2868 16.8521 35.2868 17.1416 35.2868 17.421C35.2868 26.0744 28.6574 36.0452 16.5435 36.0452C12.8069 36.0452 9.34152 34.9673 6.42857 33.1108C6.96094 33.1707 7.47321 33.1907 8.01562 33.1907C11.0993 33.1907 13.9319 32.1527 16.192 30.3961C13.2991 30.3362 10.8683 28.4498 10.0346 25.8548C11.0491 26.0045 11.9632 26.0045 13.0078 25.735C9.99442 25.1262 7.73437 22.4913 7.73437 19.3074V19.2275C8.60826 19.7166 9.63281 20.016 10.7076 20.056C9.804 19.4587 9.06326 18.6485 8.55148 17.6976C8.03969 16.7468 7.77278 15.6848 7.77455 14.6064C7.77455 13.3888 8.09598 12.2709 8.66853 11.3028C11.9129 15.2751 16.7846 17.8702 22.2489 18.1496C21.3147 13.7082 24.6596 10.1051 28.6775 10.1051C30.5759 10.1051 32.2835 10.8936 33.4888 12.1711C34.9754 11.8917 36.4018 11.3427 37.6674 10.5942C37.1752 12.1112 36.1406 13.3888 34.7746 14.1972C36.1004 14.0575 37.3862 13.6882 38.5714 13.1792C37.6775 14.4867 36.5525 15.6444 35.2667 16.5727Z" fill="white"/>
</svg>
